<svg width="256" height="240" viewBox="0 0 256 240" fill="none" xmlns="http://www.w3.org/2000/svg">
<path d="M156.578 16H60.4219C36.9929 16 18 34.9929 18 58.4219V154.578C18 178.007 36.9929 197 60.4219 197H156.578C180.007 197 199 178.007 199 154.578V58.4219C199 34.9929 180.007 16 156.578 16Z" fill="#090044"/>
<path d="M109.006 37C89.7242 37 87.3041 37.0843 79.7307 37.429C72.1721 37.7751 67.0127 38.9717 62.4982 40.7275C57.8285 42.5409 53.8671 44.9668 49.9208 48.9147C45.9713 52.8611 43.5455 56.8223 41.7261 61.4906C39.9658 66.0065 38.7677 71.1673 38.4275 78.7229C38.0888 86.2962 38 88.7173 38 108C38 127.283 38.0858 129.695 38.429 137.268C38.7766 144.827 39.9732 149.986 41.7276 154.5C43.5425 159.171 45.9683 163.132 49.9163 167.078C53.8613 171.027 57.8225 173.459 62.4893 175.273C67.0068 177.028 72.1676 178.225 79.7248 178.571C87.2982 178.915 89.7164 179 108.998 179C128.282 179 130.695 178.915 138.268 178.571C145.826 178.225 150.992 177.028 155.509 175.273C160.178 173.459 164.133 171.027 168.078 167.078C172.027 163.132 174.453 159.171 176.272 154.502C178.018 149.986 179.216 144.825 179.571 137.269C179.911 129.697 180 127.283 180 108C180 88.7173 179.911 86.2977 179.571 78.7244C179.216 71.1658 178.018 66.0065 176.272 61.4921C174.453 56.8223 172.027 52.8611 168.078 48.9147C164.129 44.9653 160.179 42.5395 155.505 40.7275C150.979 38.9717 145.816 37.7751 138.258 37.429C130.684 37.0843 128.273 37 108.984 37H109.006ZM102.637 49.7948C104.528 49.7919 106.637 49.7948 109.006 49.7948C127.964 49.7948 130.211 49.8629 137.697 50.203C144.619 50.5196 148.377 51.6763 150.879 52.6481C154.193 53.935 156.555 55.4733 159.039 57.9584C161.524 60.4433 163.062 62.81 164.352 66.1233C165.324 68.6231 166.482 72.3802 166.797 79.3027C167.137 86.7873 167.211 89.0354 167.211 107.984C167.211 126.932 167.137 129.181 166.797 136.665C166.48 143.587 165.324 147.344 164.352 149.844C163.065 153.158 161.524 155.517 159.039 158.001C156.554 160.486 154.194 162.023 150.879 163.311C148.379 164.287 144.619 165.441 137.697 165.757C130.212 166.097 127.964 166.171 109.006 166.171C90.048 166.171 87.8011 166.097 80.3164 165.757C73.3939 165.438 69.6367 164.281 67.1325 163.309C63.8191 162.022 61.4524 160.484 58.9674 157.999C56.4824 155.514 54.944 153.153 53.6542 149.838C52.6824 147.339 51.5242 143.581 51.2091 136.659C50.8689 129.174 50.8009 126.926 50.8009 107.966C50.8009 89.0063 50.8689 86.7695 51.2091 79.285C51.5256 72.3625 52.6824 68.6053 53.6542 66.1026C54.9411 62.7893 56.4824 60.4226 58.9674 57.9376C61.4524 55.4526 63.8191 53.9143 67.1325 52.6245C69.6353 51.6482 73.3939 50.4944 80.3164 50.1764C86.8662 49.8806 89.4047 49.7919 102.637 49.777V49.7948ZM146.906 61.5838C142.202 61.5838 138.386 65.3956 138.386 70.1008C138.386 74.8046 142.202 78.6208 146.906 78.6208C151.61 78.6208 155.426 74.8046 155.426 70.1008C155.426 65.397 151.61 61.5808 146.906 61.5808V61.5838ZM109.006 71.5385C88.8706 71.5385 72.5448 87.8641 72.5448 108C72.5448 128.136 88.8706 144.454 109.006 144.454C129.143 144.454 145.463 128.136 145.463 108C145.463 87.8641 129.141 71.5385 109.005 71.5385H109.006ZM109.006 84.3334C122.077 84.3334 132.674 94.9283 132.674 108C132.674 121.07 122.077 131.667 109.006 131.667C95.9353 131.667 85.3397 121.07 85.3397 108C85.3397 94.9283 95.9353 84.3334 109.006 84.3334Z" fill="#CDD6FF"/>
</svg>
