<svg width="156" height="109" viewBox="0 0 156 109" fill="none" xmlns="http://www.w3.org/2000/svg">
<path d="M152.555 17.0008C150.734 10.3139 145.477 5.09031 138.748 3.28085C126.643 0 77.9198 0 77.9198 0C77.9198 0 29.1969 0.09942 17.0913 3.38027C10.3622 5.18973 5.10567 10.4133 3.2848 17.1002C-0.376919 38.4755 -1.79758 71.0454 3.38484 91.5656C5.20572 98.2526 10.4622 103.476 17.1913 105.286C29.297 108.566 78.0198 108.566 78.0198 108.566C78.0198 108.566 126.743 108.566 138.848 105.286C145.577 103.476 150.834 98.2526 152.655 91.5656C156.517 70.1606 157.707 37.6105 152.555 17.0008Z" fill="#090044"/>
<path d="M62.4125 77.5475L102.831 54.2833L62.4125 31.019V77.5475Z" fill="#CDD6FF"/>
</svg>
